<svg width="120" height="120" viewBox="0 0 120 120" fill="none" xmlns="http://www.w3.org/2000/svg">
<path d="M54.134 69.2045L54.4721 69.4499L54.7736 69.1609L81.2173 43.819L86.0607 48.8729L57.2043 76.527L55.0932 78.5501L52.7267 76.8326L35.3488 64.2196L39.4605 58.5545L54.134 69.2045ZM60 117.5C91.7564 117.5 117.5 91.7564 117.5 60C117.5 28.2436 91.7564 2.5 60 2.5C28.2436 2.5 2.5 28.2436 2.5 60C2.5 91.7564 28.2436 117.5 60 117.5ZM119.5 60C119.5 92.8609 92.8609 119.5 60 119.5C27.1391 119.5 0.5 92.8609 0.5 60C0.5 27.1391 27.1391 0.5 60 0.5C92.8609 0.5 119.5 27.1391 119.5 60Z" fill="black" stroke="black"/>
</svg>
